<mxfile host="app.diagrams.net" agent="Mozilla/5.0 (X11; Linux x86_64) AppleWebKit/537.36 (KHTML, like Gecko) Chrome/133.0.0.0 Safari/537.36" version="26.1.0">
  <diagram name="Page-1" id="FPhMDtRc06lvowGXa2xI">
    <mxGraphModel dx="1195" dy="623" grid="1" gridSize="10" guides="1" tooltips="1" connect="1" arrows="1" fold="1" page="1" pageScale="1" pageWidth="850" pageHeight="1100" math="0" shadow="0">
      <root>
        <mxCell id="0" />
        <mxCell id="1" parent="0" />
        <mxCell id="u_gvVvJU2lk0KkKX586m-4" style="edgeStyle=orthogonalEdgeStyle;rounded=0;orthogonalLoop=1;jettySize=auto;html=1;exitX=0.5;exitY=1;exitDx=0;exitDy=0;entryX=0.5;entryY=0;entryDx=0;entryDy=0;strokeWidth=2;" edge="1" parent="1" source="u_gvVvJU2lk0KkKX586m-1" target="u_gvVvJU2lk0KkKX586m-3">
          <mxGeometry relative="1" as="geometry" />
        </mxCell>
        <mxCell id="u_gvVvJU2lk0KkKX586m-1" value="&lt;div style=&quot;&quot;&gt;config/dev/export.toml&lt;/div&gt;" style="rounded=1;whiteSpace=wrap;html=1;fontSize=16;strokeWidth=2;" vertex="1" parent="1">
          <mxGeometry x="40" y="160" width="200" height="80" as="geometry" />
        </mxCell>
        <mxCell id="u_gvVvJU2lk0KkKX586m-33" style="edgeStyle=orthogonalEdgeStyle;rounded=0;orthogonalLoop=1;jettySize=auto;html=1;exitX=0.5;exitY=1;exitDx=0;exitDy=0;entryX=0.5;entryY=0;entryDx=0;entryDy=0;strokeWidth=2;" edge="1" parent="1" source="u_gvVvJU2lk0KkKX586m-3" target="u_gvVvJU2lk0KkKX586m-32">
          <mxGeometry relative="1" as="geometry" />
        </mxCell>
        <mxCell id="u_gvVvJU2lk0KkKX586m-53" style="edgeStyle=orthogonalEdgeStyle;rounded=1;orthogonalLoop=1;jettySize=auto;html=1;exitX=1;exitY=0.5;exitDx=0;exitDy=0;entryX=0.5;entryY=1;entryDx=0;entryDy=0;curved=0;strokeWidth=2;" edge="1" parent="1" source="u_gvVvJU2lk0KkKX586m-3" target="u_gvVvJU2lk0KkKX586m-45">
          <mxGeometry relative="1" as="geometry" />
        </mxCell>
        <mxCell id="u_gvVvJU2lk0KkKX586m-3" value="export APP_ENV=dev" style="rounded=1;whiteSpace=wrap;html=1;fontSize=16;strokeWidth=2;fillColor=#dae8fc;strokeColor=#6c8ebf;" vertex="1" parent="1">
          <mxGeometry x="40" y="280" width="200" height="80" as="geometry" />
        </mxCell>
        <mxCell id="u_gvVvJU2lk0KkKX586m-35" style="edgeStyle=orthogonalEdgeStyle;rounded=0;orthogonalLoop=1;jettySize=auto;html=1;exitX=0.5;exitY=1;exitDx=0;exitDy=0;entryX=0.5;entryY=0;entryDx=0;entryDy=0;strokeWidth=2;" edge="1" parent="1" source="u_gvVvJU2lk0KkKX586m-32" target="u_gvVvJU2lk0KkKX586m-34">
          <mxGeometry relative="1" as="geometry" />
        </mxCell>
        <mxCell id="u_gvVvJU2lk0KkKX586m-32" value="make dotenv" style="rounded=1;whiteSpace=wrap;html=1;fontSize=16;strokeWidth=2;fillColor=#dae8fc;strokeColor=#6c8ebf;" vertex="1" parent="1">
          <mxGeometry x="40" y="400" width="200" height="80" as="geometry" />
        </mxCell>
        <mxCell id="u_gvVvJU2lk0KkKX586m-42" style="edgeStyle=orthogonalEdgeStyle;rounded=0;orthogonalLoop=1;jettySize=auto;html=1;exitX=1;exitY=0.5;exitDx=0;exitDy=0;entryX=0;entryY=0.5;entryDx=0;entryDy=0;strokeWidth=2;" edge="1" parent="1" source="u_gvVvJU2lk0KkKX586m-34" target="u_gvVvJU2lk0KkKX586m-41">
          <mxGeometry relative="1" as="geometry" />
        </mxCell>
        <mxCell id="u_gvVvJU2lk0KkKX586m-34" value="config/dev/.env.dev" style="rounded=1;whiteSpace=wrap;html=1;fontSize=16;strokeWidth=2;" vertex="1" parent="1">
          <mxGeometry x="40" y="520" width="200" height="80" as="geometry" />
        </mxCell>
        <mxCell id="u_gvVvJU2lk0KkKX586m-40" style="edgeStyle=orthogonalEdgeStyle;rounded=0;orthogonalLoop=1;jettySize=auto;html=1;exitX=0.5;exitY=1;exitDx=0;exitDy=0;entryX=0.5;entryY=0;entryDx=0;entryDy=0;strokeWidth=2;" edge="1" parent="1" source="u_gvVvJU2lk0KkKX586m-38" target="u_gvVvJU2lk0KkKX586m-1">
          <mxGeometry relative="1" as="geometry" />
        </mxCell>
        <mxCell id="u_gvVvJU2lk0KkKX586m-46" style="edgeStyle=orthogonalEdgeStyle;rounded=0;orthogonalLoop=1;jettySize=auto;html=1;exitX=1;exitY=0.5;exitDx=0;exitDy=0;entryX=0;entryY=0.5;entryDx=0;entryDy=0;strokeWidth=2;" edge="1" parent="1" source="u_gvVvJU2lk0KkKX586m-38" target="u_gvVvJU2lk0KkKX586m-45">
          <mxGeometry relative="1" as="geometry" />
        </mxCell>
        <mxCell id="u_gvVvJU2lk0KkKX586m-38" value="config/dev/config.toml&lt;div style=&quot;&quot;&gt;config/dev/.secrets.toml&lt;br&gt;&lt;/div&gt;" style="rounded=1;whiteSpace=wrap;html=1;fontSize=16;strokeWidth=2;" vertex="1" parent="1">
          <mxGeometry x="40" y="40" width="200" height="80" as="geometry" />
        </mxCell>
        <mxCell id="u_gvVvJU2lk0KkKX586m-41" value="&lt;div&gt;config/dev/docker-compose.yaml&lt;/div&gt;" style="rounded=1;whiteSpace=wrap;html=1;fontSize=16;strokeWidth=2;" vertex="1" parent="1">
          <mxGeometry x="400" y="520" width="200" height="80" as="geometry" />
        </mxCell>
        <mxCell id="u_gvVvJU2lk0KkKX586m-44" value="can be used by" style="text;html=1;align=center;verticalAlign=middle;whiteSpace=wrap;rounded=0;fontSize=14;" vertex="1" parent="1">
          <mxGeometry x="260" y="530" width="120" height="30" as="geometry" />
        </mxCell>
        <mxCell id="u_gvVvJU2lk0KkKX586m-45" value="&lt;div&gt;app&lt;/div&gt;" style="rounded=1;whiteSpace=wrap;html=1;fontSize=16;strokeWidth=2;" vertex="1" parent="1">
          <mxGeometry x="400" y="40" width="200" height="80" as="geometry" />
        </mxCell>
        <mxCell id="u_gvVvJU2lk0KkKX586m-47" value="can be used by ..." style="text;html=1;align=center;verticalAlign=middle;whiteSpace=wrap;rounded=0;fontSize=14;" vertex="1" parent="1">
          <mxGeometry x="260" y="50" width="120" height="30" as="geometry" />
        </mxCell>
        <mxCell id="u_gvVvJU2lk0KkKX586m-49" value="&lt;b&gt;&lt;i&gt;fill in&lt;/i&gt;&lt;/b&gt;" style="text;html=1;align=center;verticalAlign=middle;whiteSpace=wrap;rounded=0;fontSize=14;" vertex="1" parent="1">
          <mxGeometry x="140" y="130" width="120" height="30" as="geometry" />
        </mxCell>
        <mxCell id="u_gvVvJU2lk0KkKX586m-50" value="&lt;b&gt;&lt;i&gt;call&lt;/i&gt;&lt;/b&gt;" style="text;html=1;align=center;verticalAlign=middle;whiteSpace=wrap;rounded=0;fontSize=14;" vertex="1" parent="1">
          <mxGeometry x="140" y="250" width="120" height="30" as="geometry" />
        </mxCell>
        <mxCell id="u_gvVvJU2lk0KkKX586m-51" value="&lt;b&gt;&lt;i&gt;call&lt;/i&gt;&lt;/b&gt;" style="text;html=1;align=center;verticalAlign=middle;whiteSpace=wrap;rounded=0;fontSize=14;" vertex="1" parent="1">
          <mxGeometry x="140" y="370" width="120" height="30" as="geometry" />
        </mxCell>
        <mxCell id="u_gvVvJU2lk0KkKX586m-52" value="&lt;b&gt;&lt;i&gt;get&lt;/i&gt;&lt;/b&gt;" style="text;html=1;align=center;verticalAlign=middle;whiteSpace=wrap;rounded=0;fontSize=14;" vertex="1" parent="1">
          <mxGeometry x="140" y="490" width="120" height="30" as="geometry" />
        </mxCell>
        <mxCell id="u_gvVvJU2lk0KkKX586m-55" value="... if this variable is set" style="text;html=1;align=center;verticalAlign=middle;whiteSpace=wrap;rounded=0;fontSize=14;" vertex="1" parent="1">
          <mxGeometry x="300" y="290" width="140" height="30" as="geometry" />
        </mxCell>
      </root>
    </mxGraphModel>
  </diagram>
</mxfile>
